<mxfile host="Electron" agent="Mozilla/5.0 (X11; Linux x86_64) AppleWebKit/537.36 (KHTML, like Gecko) draw.io/24.7.17 Chrome/128.0.6613.186 Electron/32.2.2 Safari/537.36" version="24.7.17">
  <diagram name="Page-1" id="13e1069c-82ec-6db2-03f1-153e76fe0fe0">
    <mxGraphModel dx="1836" dy="851" grid="1" gridSize="10" guides="1" tooltips="1" connect="1" arrows="1" fold="1" page="1" pageScale="1" pageWidth="1100" pageHeight="850" background="none" math="0" shadow="0">
      <root>
        <mxCell id="0" />
        <mxCell id="1" parent="0" />
        <mxCell id="g9n9RuEzyrvLXz1nGeEN-1" value="Главная&amp;nbsp;&lt;div&gt;страница&lt;/div&gt;" style="shape=umlLifeline;perimeter=lifelinePerimeter;whiteSpace=wrap;html=1;container=1;dropTarget=0;collapsible=0;recursiveResize=0;outlineConnect=0;portConstraint=eastwest;newEdgeStyle={&quot;curved&quot;:0,&quot;rounded&quot;:0};" vertex="1" parent="1">
          <mxGeometry x="-130" y="30" width="100" height="530" as="geometry" />
        </mxCell>
        <mxCell id="g9n9RuEzyrvLXz1nGeEN-5" style="edgeStyle=orthogonalEdgeStyle;rounded=0;orthogonalLoop=1;jettySize=auto;html=1;exitX=1;exitY=0.5;exitDx=0;exitDy=0;entryX=0;entryY=0.5;entryDx=0;entryDy=0;" edge="1" parent="1" source="g9n9RuEzyrvLXz1nGeEN-2" target="g9n9RuEzyrvLXz1nGeEN-4">
          <mxGeometry relative="1" as="geometry" />
        </mxCell>
        <mxCell id="g9n9RuEzyrvLXz1nGeEN-2" value="" style="html=1;whiteSpace=wrap;" vertex="1" parent="1">
          <mxGeometry x="-115" y="100" width="70" height="20" as="geometry" />
        </mxCell>
        <mxCell id="g9n9RuEzyrvLXz1nGeEN-3" value="Страница авторизации" style="shape=umlLifeline;perimeter=lifelinePerimeter;whiteSpace=wrap;html=1;container=1;dropTarget=0;collapsible=0;recursiveResize=0;outlineConnect=0;portConstraint=eastwest;newEdgeStyle={&quot;curved&quot;:0,&quot;rounded&quot;:0};" vertex="1" parent="1">
          <mxGeometry x="190" y="30" width="100" height="530" as="geometry" />
        </mxCell>
        <mxCell id="g9n9RuEzyrvLXz1nGeEN-8" style="edgeStyle=orthogonalEdgeStyle;rounded=0;orthogonalLoop=1;jettySize=auto;html=1;exitX=1;exitY=0.5;exitDx=0;exitDy=0;entryX=0;entryY=0.5;entryDx=0;entryDy=0;" edge="1" parent="1" source="g9n9RuEzyrvLXz1nGeEN-4" target="g9n9RuEzyrvLXz1nGeEN-7">
          <mxGeometry relative="1" as="geometry" />
        </mxCell>
        <mxCell id="g9n9RuEzyrvLXz1nGeEN-4" value="" style="html=1;whiteSpace=wrap;" vertex="1" parent="1">
          <mxGeometry x="205" y="100" width="70" height="20" as="geometry" />
        </mxCell>
        <mxCell id="g9n9RuEzyrvLXz1nGeEN-6" value="Страница&lt;div&gt;регистрации&lt;/div&gt;" style="shape=umlLifeline;perimeter=lifelinePerimeter;whiteSpace=wrap;html=1;container=1;dropTarget=0;collapsible=0;recursiveResize=0;outlineConnect=0;portConstraint=eastwest;newEdgeStyle={&quot;curved&quot;:0,&quot;rounded&quot;:0};" vertex="1" parent="1">
          <mxGeometry x="330" y="30" width="100" height="530" as="geometry" />
        </mxCell>
        <mxCell id="g9n9RuEzyrvLXz1nGeEN-11" value="Ввод&amp;nbsp;&lt;div&gt;некорректных&amp;nbsp;&lt;div&gt;данных&lt;/div&gt;&lt;/div&gt;" style="rounded=0;orthogonalLoop=1;jettySize=auto;html=1;exitX=1;exitY=0.5;exitDx=0;exitDy=0;entryX=1;entryY=0.5;entryDx=0;entryDy=0;" edge="1" parent="1" source="g9n9RuEzyrvLXz1nGeEN-7" target="g9n9RuEzyrvLXz1nGeEN-9">
          <mxGeometry x="0.1111" y="45" relative="1" as="geometry">
            <Array as="points">
              <mxPoint x="450" y="120" />
              <mxPoint x="450" y="150" />
            </Array>
            <mxPoint as="offset" />
          </mxGeometry>
        </mxCell>
        <mxCell id="g9n9RuEzyrvLXz1nGeEN-14" style="edgeStyle=orthogonalEdgeStyle;rounded=0;orthogonalLoop=1;jettySize=auto;html=1;exitX=1;exitY=0.5;exitDx=0;exitDy=0;entryX=0;entryY=0.5;entryDx=0;entryDy=0;" edge="1" parent="1" source="g9n9RuEzyrvLXz1nGeEN-7" target="g9n9RuEzyrvLXz1nGeEN-13">
          <mxGeometry relative="1" as="geometry" />
        </mxCell>
        <mxCell id="g9n9RuEzyrvLXz1nGeEN-7" value="" style="html=1;whiteSpace=wrap;" vertex="1" parent="1">
          <mxGeometry x="345" y="100" width="70" height="20" as="geometry" />
        </mxCell>
        <mxCell id="g9n9RuEzyrvLXz1nGeEN-9" value="" style="html=1;whiteSpace=wrap;" vertex="1" parent="1">
          <mxGeometry x="345" y="150" width="70" height="20" as="geometry" />
        </mxCell>
        <mxCell id="g9n9RuEzyrvLXz1nGeEN-12" value="База данных" style="shape=umlLifeline;perimeter=lifelinePerimeter;whiteSpace=wrap;html=1;container=1;dropTarget=0;collapsible=0;recursiveResize=0;outlineConnect=0;portConstraint=eastwest;newEdgeStyle={&quot;curved&quot;:0,&quot;rounded&quot;:0};" vertex="1" parent="1">
          <mxGeometry x="550" y="30" width="100" height="530" as="geometry" />
        </mxCell>
        <mxCell id="g9n9RuEzyrvLXz1nGeEN-13" value="" style="html=1;whiteSpace=wrap;" vertex="1" parent="1">
          <mxGeometry x="565" y="100" width="70" height="20" as="geometry" />
        </mxCell>
        <mxCell id="g9n9RuEzyrvLXz1nGeEN-23" value="Сообщение&lt;div&gt;об&lt;/div&gt;&lt;div&gt;&amp;nbsp;существовании&lt;/div&gt;&lt;div&gt;логина&lt;/div&gt;" style="rounded=0;orthogonalLoop=1;jettySize=auto;html=1;exitX=1;exitY=0.5;exitDx=0;exitDy=0;entryX=1;entryY=0.5;entryDx=0;entryDy=0;" edge="1" parent="1" source="g9n9RuEzyrvLXz1nGeEN-15" target="g9n9RuEzyrvLXz1nGeEN-19">
          <mxGeometry x="0.1304" y="50" relative="1" as="geometry">
            <Array as="points">
              <mxPoint x="450" y="250" />
              <mxPoint x="450" y="280" />
            </Array>
            <mxPoint as="offset" />
          </mxGeometry>
        </mxCell>
        <mxCell id="g9n9RuEzyrvLXz1nGeEN-27" value="Сообщение&amp;nbsp;&lt;div&gt;об успешной&lt;/div&gt;&lt;div&gt;регистрации&lt;/div&gt;" style="edgeStyle=orthogonalEdgeStyle;rounded=0;orthogonalLoop=1;jettySize=auto;html=1;exitX=0;exitY=0.5;exitDx=0;exitDy=0;entryX=1;entryY=0.5;entryDx=0;entryDy=0;" edge="1" parent="1" source="g9n9RuEzyrvLXz1nGeEN-15" target="g9n9RuEzyrvLXz1nGeEN-26">
          <mxGeometry y="-30" relative="1" as="geometry">
            <mxPoint as="offset" />
          </mxGeometry>
        </mxCell>
        <mxCell id="g9n9RuEzyrvLXz1nGeEN-15" value="" style="html=1;whiteSpace=wrap;" vertex="1" parent="1">
          <mxGeometry x="345" y="220" width="70" height="20" as="geometry" />
        </mxCell>
        <mxCell id="g9n9RuEzyrvLXz1nGeEN-18" value="Возврат результата" style="edgeStyle=orthogonalEdgeStyle;rounded=0;orthogonalLoop=1;jettySize=auto;html=1;exitX=0;exitY=0.5;exitDx=0;exitDy=0;entryX=1;entryY=0.5;entryDx=0;entryDy=0;" edge="1" parent="1" source="g9n9RuEzyrvLXz1nGeEN-16" target="g9n9RuEzyrvLXz1nGeEN-15">
          <mxGeometry y="-10" relative="1" as="geometry">
            <mxPoint as="offset" />
          </mxGeometry>
        </mxCell>
        <mxCell id="g9n9RuEzyrvLXz1nGeEN-16" value="" style="html=1;whiteSpace=wrap;" vertex="1" parent="1">
          <mxGeometry x="565" y="220" width="70" height="20" as="geometry" />
        </mxCell>
        <mxCell id="g9n9RuEzyrvLXz1nGeEN-19" value="" style="html=1;whiteSpace=wrap;" vertex="1" parent="1">
          <mxGeometry x="345" y="280" width="70" height="20" as="geometry" />
        </mxCell>
        <mxCell id="g9n9RuEzyrvLXz1nGeEN-26" value="" style="html=1;whiteSpace=wrap;" vertex="1" parent="1">
          <mxGeometry x="205" y="220" width="70" height="20" as="geometry" />
        </mxCell>
        <mxCell id="g9n9RuEzyrvLXz1nGeEN-32" value="Ввод&lt;div&gt;некорретных&amp;nbsp;&lt;/div&gt;&lt;div&gt;данных&lt;/div&gt;" style="rounded=0;orthogonalLoop=1;jettySize=auto;html=1;exitX=1;exitY=0.5;exitDx=0;exitDy=0;entryX=1;entryY=0.5;entryDx=0;entryDy=0;" edge="1" parent="1" source="g9n9RuEzyrvLXz1nGeEN-28" target="g9n9RuEzyrvLXz1nGeEN-30">
          <mxGeometry x="0.1514" y="40" relative="1" as="geometry">
            <Array as="points">
              <mxPoint x="290" y="350" />
              <mxPoint x="290" y="380" />
            </Array>
            <mxPoint as="offset" />
          </mxGeometry>
        </mxCell>
        <mxCell id="g9n9RuEzyrvLXz1nGeEN-34" style="edgeStyle=orthogonalEdgeStyle;rounded=0;orthogonalLoop=1;jettySize=auto;html=1;exitX=1;exitY=0.5;exitDx=0;exitDy=0;entryX=0;entryY=0.5;entryDx=0;entryDy=0;" edge="1" parent="1" source="g9n9RuEzyrvLXz1nGeEN-28" target="g9n9RuEzyrvLXz1nGeEN-33">
          <mxGeometry relative="1" as="geometry" />
        </mxCell>
        <mxCell id="g9n9RuEzyrvLXz1nGeEN-28" value="" style="html=1;whiteSpace=wrap;" vertex="1" parent="1">
          <mxGeometry x="205" y="330" width="70" height="20" as="geometry" />
        </mxCell>
        <mxCell id="g9n9RuEzyrvLXz1nGeEN-30" value="" style="html=1;whiteSpace=wrap;" vertex="1" parent="1">
          <mxGeometry x="205" y="380" width="70" height="20" as="geometry" />
        </mxCell>
        <mxCell id="g9n9RuEzyrvLXz1nGeEN-33" value="" style="html=1;whiteSpace=wrap;" vertex="1" parent="1">
          <mxGeometry x="565" y="330" width="70" height="20" as="geometry" />
        </mxCell>
        <mxCell id="g9n9RuEzyrvLXz1nGeEN-36" value="Возврат результата" style="edgeStyle=orthogonalEdgeStyle;rounded=0;orthogonalLoop=1;jettySize=auto;html=1;exitX=0;exitY=0.5;exitDx=0;exitDy=0;entryX=1;entryY=0.5;entryDx=0;entryDy=0;" edge="1" parent="1" source="g9n9RuEzyrvLXz1nGeEN-35">
          <mxGeometry x="-0.2759" y="-10" relative="1" as="geometry">
            <mxPoint x="275" y="450" as="targetPoint" />
            <mxPoint as="offset" />
          </mxGeometry>
        </mxCell>
        <mxCell id="g9n9RuEzyrvLXz1nGeEN-35" value="" style="html=1;whiteSpace=wrap;" vertex="1" parent="1">
          <mxGeometry x="565" y="440" width="70" height="20" as="geometry" />
        </mxCell>
        <mxCell id="g9n9RuEzyrvLXz1nGeEN-37" value="Сообщение&lt;div&gt;о неверных&lt;/div&gt;&lt;div&gt;данных&lt;/div&gt;" style="rounded=0;orthogonalLoop=1;jettySize=auto;html=1;exitX=1;exitY=0.5;exitDx=0;exitDy=0;entryX=1;entryY=0.5;entryDx=0;entryDy=0;" edge="1" parent="1" source="g9n9RuEzyrvLXz1nGeEN-38" target="g9n9RuEzyrvLXz1nGeEN-39">
          <mxGeometry x="0.1514" y="40" relative="1" as="geometry">
            <Array as="points">
              <mxPoint x="290" y="460" />
              <mxPoint x="290" y="490" />
            </Array>
            <mxPoint as="offset" />
          </mxGeometry>
        </mxCell>
        <mxCell id="g9n9RuEzyrvLXz1nGeEN-43" style="edgeStyle=orthogonalEdgeStyle;rounded=0;orthogonalLoop=1;jettySize=auto;html=1;exitX=0;exitY=0.5;exitDx=0;exitDy=0;entryX=1;entryY=0.5;entryDx=0;entryDy=0;" edge="1" parent="1" source="g9n9RuEzyrvLXz1nGeEN-38" target="g9n9RuEzyrvLXz1nGeEN-42">
          <mxGeometry relative="1" as="geometry" />
        </mxCell>
        <mxCell id="g9n9RuEzyrvLXz1nGeEN-38" value="" style="html=1;whiteSpace=wrap;" vertex="1" parent="1">
          <mxGeometry x="205" y="440" width="70" height="20" as="geometry" />
        </mxCell>
        <mxCell id="g9n9RuEzyrvLXz1nGeEN-39" value="" style="html=1;whiteSpace=wrap;" vertex="1" parent="1">
          <mxGeometry x="205" y="490" width="70" height="20" as="geometry" />
        </mxCell>
        <mxCell id="g9n9RuEzyrvLXz1nGeEN-41" value="Личный кабинет" style="shape=umlLifeline;perimeter=lifelinePerimeter;whiteSpace=wrap;html=1;container=1;dropTarget=0;collapsible=0;recursiveResize=0;outlineConnect=0;portConstraint=eastwest;newEdgeStyle={&quot;curved&quot;:0,&quot;rounded&quot;:0};" vertex="1" parent="1">
          <mxGeometry x="30" y="30" width="100" height="530" as="geometry" />
        </mxCell>
        <mxCell id="g9n9RuEzyrvLXz1nGeEN-42" value="" style="html=1;whiteSpace=wrap;" vertex="1" parent="1">
          <mxGeometry x="45" y="440" width="70" height="20" as="geometry" />
        </mxCell>
      </root>
    </mxGraphModel>
  </diagram>
</mxfile>
